<svg width="40" height="40" viewBox="0 0 40 40" fill="none" xmlns="http://www.w3.org/2000/svg">
<path d="M30.6668 17.005C28.7734 13.765 24.6668 12.5916 21.3334 14.3383V7.67162H18.6668V14.3383C15.3334 12.5916 11.2268 13.765 9.33344 17.005C6.66677 21.005 13.3334 33.0049 16.0001 33.0049C18.6668 33.0049 18.6668 31.6716 20.0001 31.6716C21.3334 31.6716 21.3334 33.0049 24.0001 33.0049C26.6668 33.0049 33.3334 21.005 30.6668 17.005ZM28.3334 21.5116C27.5068 24.805 25.8801 27.8316 23.6001 30.3383C23.3334 30.3383 23.0268 30.205 22.8001 30.0049C21.1601 28.6849 18.8401 28.6849 17.2001 30.0049C16.9734 30.205 16.6668 30.3383 16.4001 30.3383C14.1201 27.8449 12.4801 24.805 11.6668 21.525C11.3334 20.5516 11.2668 19.4983 11.5468 18.4983C12.3201 17.125 13.7601 16.245 15.3334 16.205C16.0801 16.2183 16.8134 16.3916 17.4801 16.725L18.6668 17.325H21.3334L22.5201 16.725C23.1868 16.3916 23.9201 16.2183 24.6668 16.205C26.2401 16.245 27.6801 17.1116 28.4534 18.485C28.7334 19.485 28.6668 20.5383 28.3334 21.5116ZM18.6668 10.3383C11.1734 14.4316 9.4801 8.71162 9.4801 8.71162C9.4801 8.71162 13.0268 3.92495 18.6668 10.3383Z" fill="#979797"/>
</svg>
