<svg width="40" height="40" viewBox="0 0 40 40" fill="none" xmlns="http://www.w3.org/2000/svg">
<path d="M30.6667 12.6668H26.6667V10.0002C26.6667 8.5295 25.4707 7.3335 24.0001 7.3335H16.0001C14.5294 7.3335 13.3334 8.5295 13.3334 10.0002V12.6668H9.33341C7.86275 12.6668 6.66675 13.8628 6.66675 15.3335V30.0002C6.66675 31.4708 7.86275 32.6668 9.33341 32.6668H30.6667C32.1374 32.6668 33.3334 31.4708 33.3334 30.0002V15.3335C33.3334 13.8628 32.1374 12.6668 30.6667 12.6668ZM25.3334 15.3335V30.0002H14.6667V15.3335H25.3334ZM24.0001 10.0002V12.6668H16.0001V10.0002H24.0001ZM9.33341 15.3335H12.0001V30.0002H9.33341V15.3335ZM28.0001 30.0002V15.3335H30.6667L30.6681 30.0002H28.0001Z" fill="#979797"/>
</svg>
