<svg width="40" height="40" viewBox="0 0 40 40" fill="none" xmlns="http://www.w3.org/2000/svg">
<path d="M21.2549 33.2744C24.2377 32.9941 27.1442 31.712 29.4282 29.428C34.6351 24.2209 34.6351 15.7787 29.4282 10.5717C24.2211 5.36476 15.779 5.36476 10.572 10.5717C5.365 15.7787 5.365 24.2209 10.572 29.428C13.3845 32.2404 17.1409 33.5338 20.8215 33.308C20.963 33.3284 21.1106 33.3185 21.2549 33.2744ZM8.76961 18.4718C9.04866 16.4096 9.89536 14.4094 11.3098 12.7239L18.5857 20L17.1345 21.4512C15.7325 20.3161 14.1692 19.707 12.6796 19.307C11.8126 19.0742 10.9519 18.9077 10.1646 18.7554L10.1423 18.7512C9.65301 18.6565 9.19656 18.5678 8.76961 18.4718ZM8.67765 20.4985C9.03215 20.5734 9.39055 20.6428 9.74528 20.7114L9.76243 20.7146C10.5663 20.8702 11.3657 21.025 12.1609 21.2386C13.4323 21.5801 14.6434 22.0596 15.7103 22.8753L11.3098 27.2758C9.66099 25.311 8.78359 22.9185 8.67765 20.4985ZM17.1289 24.2852C18.0287 25.4348 18.5153 26.6937 18.8587 27.983C19.0253 28.608 19.1535 29.22 19.2831 29.8385C19.3198 30.0133 19.3566 30.1886 19.3943 30.365C19.4626 30.6844 19.5343 31.0068 19.6145 31.3266C17.1561 31.2434 14.7195 30.3646 12.7241 28.69L17.1289 24.2852ZM21.653 31.2126C21.5446 30.826 21.4482 30.4053 21.3499 29.9464C21.3161 29.788 21.2819 29.6246 21.2469 29.4576C21.1158 28.8318 20.9731 28.1505 20.7914 27.4681C20.3906 25.964 19.7763 24.3521 18.5515 22.8625L19.9999 21.4141L27.2759 28.6901C25.6246 30.076 23.671 30.9168 21.653 31.2126ZM21.4142 20L23.0289 18.3852C24.5141 19.6417 26.0706 20.3309 27.5162 20.82C28.1127 21.0218 28.7115 21.196 29.2643 21.3568C29.4758 21.4182 29.6807 21.4778 29.8765 21.5362C30.3453 21.6765 30.7725 21.8133 31.1629 21.9638C30.829 23.8713 30.0047 25.7096 28.6902 27.276L21.4142 20ZM30.4491 19.6201C30.2245 19.5529 30.0015 19.4881 29.7803 19.4237C29.2426 19.2674 28.7101 19.1126 28.1573 18.9256C26.8983 18.4996 25.6395 17.9381 24.449 16.965L28.6902 12.7238C30.4295 14.7963 31.3105 17.3448 31.333 19.8994C31.0393 19.7997 30.7433 19.708 30.4491 19.6201ZM27.2761 11.3096L23.0347 15.5509C22.0613 14.3601 21.4997 13.1011 21.0737 11.8419C20.8866 11.2891 20.7317 10.7565 20.5754 10.2188L20.5749 10.217C20.5106 9.99616 20.4462 9.7744 20.3791 9.54998C20.2913 9.25614 20.1997 8.96036 20.1001 8.66694C22.6547 8.68933 25.2034 9.57021 27.2761 11.3096ZM19.1791 12.4829C19.6683 13.9288 20.3577 15.4856 21.6146 16.971L19.9999 18.5857L12.724 11.3097C14.2903 9.99522 16.1284 9.17101 18.0355 8.83708C18.1861 9.22734 18.3229 9.65418 18.4629 10.1228C18.5214 10.3187 18.5811 10.5238 18.6426 10.7355C18.8034 11.2885 18.9773 11.8864 19.1791 12.4829Z" fill="#979797"/>
</svg>
