<svg width="40" height="40" viewBox="0 0 40 40" fill="none" xmlns="http://www.w3.org/2000/svg">
<path d="M34.2833 24.7668L36.6666 22.3835L34.2833 20.0002L28.3333 25.9502L14.0499 11.6668L19.9999 5.71683L17.6166 3.3335L15.2333 5.71683L12.8499 3.3335L9.28325 6.90016L6.89992 4.51683L4.51659 6.90016L6.89992 9.2835L3.33325 12.8502L5.71659 15.2335L3.33325 17.6168L5.71659 20.0002L11.6666 14.0502L25.9499 28.3335L19.9999 34.2835L22.3833 36.6668L24.7666 34.2835L27.1499 36.6668L30.7166 33.1002L33.0999 35.4835L35.4833 33.1002L33.0999 30.7168L36.6666 27.1502L34.2833 24.7668Z" fill="#979797"/>
</svg>
