<svg width="40" height="40" viewBox="0 0 40 40" fill="none" xmlns="http://www.w3.org/2000/svg">
<path d="M28.0001 18.6667C28.0001 17.388 27.0934 16.3187 25.8921 16.0613C26.3721 15.26 26.6667 14.3333 26.6667 13.3333C26.6667 10.392 24.2747 8 21.3334 8C19.3107 8 17.5721 9.14267 16.6667 10.8053C15.7614 9.14267 14.0227 8 12.0001 8C9.05875 8 6.66675 10.392 6.66675 13.3333C6.66675 14.536 7.08275 15.636 7.75608 16.528C7.41953 16.7741 7.14558 17.0959 6.95635 17.4674C6.76712 17.8389 6.66791 18.2497 6.66675 18.6667V29.3333C6.66675 30.804 7.86275 32 9.33341 32H25.3334C26.8041 32 28.0001 30.804 28.0001 29.3333V25.816L33.3334 28.4827V19.1493L28.0001 21.816V18.6667ZM21.3334 10.6667C22.8041 10.6667 24.0001 11.8627 24.0001 13.3333C24.0001 14.804 22.8041 16 21.3334 16C19.8627 16 18.6667 14.804 18.6667 13.3333C18.6667 11.8627 19.8627 10.6667 21.3334 10.6667ZM12.0001 10.6667C13.4707 10.6667 14.6667 11.8627 14.6667 13.3333C14.6667 14.804 13.4707 16 12.0001 16C10.5294 16 9.33341 14.804 9.33341 13.3333C9.33341 11.8627 10.5294 10.6667 12.0001 10.6667ZM9.33341 29.3333V18.6667H25.3334L25.3361 29.3333H9.33341Z" fill="#979797"/>
</svg>
