<svg width="40" height="40" viewBox="0 0 40 40" fill="none" xmlns="http://www.w3.org/2000/svg">
<path d="M28.4267 14.6665H11.56L10.9733 9.33317H29.0267M20 29.3332C18.9391 29.3332 17.9217 28.9117 17.1716 28.1616C16.4214 27.4115 16 26.394 16 25.3332C16 22.6665 20 18.1332 20 18.1332C20 18.1332 24 22.6665 24 25.3332C24 26.394 23.5786 27.4115 22.8284 28.1616C22.0783 28.9117 21.0609 29.3332 20 29.3332ZM8 6.6665L10.6667 30.9732C10.84 32.3065 11.96 33.3332 13.3333 33.3332H26.6667C28 33.3332 29.16 32.3065 29.3333 30.9732L32 6.6665H8Z" fill="#979797"/>
</svg>
