<svg width="40" height="40" viewBox="0 0 40 40" fill="none" xmlns="http://www.w3.org/2000/svg">
<path d="M21.9079 8.018C23.7768 8.11827 25.6027 8.65511 27.2584 9.61104C33.0004 12.9262 34.9677 20.2685 31.6525 26.0104C28.3375 31.7524 20.9952 33.7198 15.2532 30.4046C13.6895 29.5018 12.3731 28.2805 11.3705 26.8246C11.0353 26.3378 11.2521 25.6656 11.8086 25.4664C16.3307 23.8478 18.7528 21.9722 20.1583 19.2894C21.6379 16.465 22.0201 13.3712 20.9851 9.13042C20.842 8.54402 21.3052 7.98566 21.9079 8.018ZM23.256 10.2015L23.3424 10.7207C23.8988 14.3275 23.4292 17.3553 21.9299 20.2174C20.4073 23.1238 17.9295 25.1561 13.9087 26.8037C14.5862 27.5357 15.3738 28.1649 16.2532 28.6726C21.0385 31.4354 27.1576 29.7958 29.9205 25.0104C32.6833 20.225 31.0437 14.1059 26.2584 11.3431C25.5845 10.9541 24.876 10.6475 24.1444 10.4261L23.7027 10.3035L23.256 10.2015ZM18.7287 8.85392L18.7371 8.98554V15.983C18.7371 17.4557 17.5432 18.6496 16.0704 18.6496C14.5976 18.6496 13.4037 17.4557 13.4037 15.983C13.4037 14.5102 14.5976 13.3163 16.0704 13.3163C16.3011 13.3163 16.5249 13.3456 16.7384 13.4007L16.7371 10.335L12.0704 11.7548V17.3162C12.0704 18.789 10.8765 19.9829 9.40373 19.9829C7.93097 19.9829 6.73706 18.789 6.73706 17.3162C6.73706 15.8435 7.93097 14.6496 9.40373 14.6496C9.63442 14.6496 9.85826 14.6789 10.0718 14.734L10.0704 11.0137C10.0704 10.6225 10.2978 10.2721 10.6441 10.1091L10.7793 10.057L17.446 8.02883C18.0028 7.85944 18.5643 8.1979 18.704 8.72827L18.7287 8.85392Z" fill="#979797"/>
</svg>
