<svg width="40" height="40" viewBox="0 0 40 40" fill="none" xmlns="http://www.w3.org/2000/svg">
<path d="M36 4H4V36H36V4Z" fill="white" fill-opacity="0.01"/>
<path d="M26.4641 31.2453L30.0001 15.3335H8.66675L12.2027 31.2453C12.4251 32.2464 12.5364 32.747 12.902 33.0402C13.2676 33.3335 13.7803 33.3335 14.8059 33.3335H23.8609C24.8865 33.3335 25.3992 33.3335 25.7648 33.0402C26.1304 32.747 26.2417 32.2464 26.4641 31.2453Z" stroke="#979797" stroke-width="2" stroke-linecap="round" stroke-linejoin="round"/>
<path d="M22 33.3335L22.6667 15.3335" stroke="#979797" stroke-width="2" stroke-linecap="round" stroke-linejoin="round"/>
<path d="M16.6667 33.3335L16 15.3335" stroke="#979797" stroke-width="2" stroke-linecap="round" stroke-linejoin="round"/>
<path d="M24.6667 33.3335H14" stroke="#979797" stroke-width="2" stroke-linecap="round" stroke-linejoin="round"/>
<path d="M24.6667 15.3335H14" stroke="#979797" stroke-width="2" stroke-linecap="round" stroke-linejoin="round"/>
<path d="M11.3334 15.3333C11.3334 15.3333 10.6667 13.3333 11.6667 12.3333C12.6667 11.3333 14.6667 11.6666 14.6667 11.6666C14.6667 11.6666 14.6667 9.66661 16.0001 8.99995C17.3334 8.33328 19.3334 9.33327 19.3334 9.33327C19.3334 9.33327 20.6667 7.09516 22.6667 7.66663C24.6667 8.2381 24.6667 10.6666 24.6667 10.6666C24.6667 10.6666 26.3334 10.6666 27.3334 12C28.3334 13.3333 27.3334 15.3333 27.3334 15.3333" stroke="#979797" stroke-width="2" stroke-linecap="round" stroke-linejoin="round"/>
</svg>
