<svg width="40" height="40" viewBox="0 0 40 40" fill="none" xmlns="http://www.w3.org/2000/svg">
<path d="M4 4V36H36V4H4ZM7.99375 34.6688H5.33125V32H8V34.6688H7.99375ZM7.99375 29.3375H5.33125V26.6688H8V29.3375H7.99375ZM7.99375 24H5.33125V21.3312H8V24H7.99375ZM7.99375 18.6687H5.33125V16H8V18.6687H7.99375ZM7.99375 13.3313H5.33125V10.6625H8V13.3313H7.99375ZM7.99375 7.99375H5.33125V5.33125H8V7.99375H7.99375ZM30.6688 33.3375H9.33125V21.3312H30.6688V33.3375ZM30.6688 18.6687H9.33125V6.6625H30.6688V18.6687ZM34.6688 34.6688H32V32H34.6688V34.6688ZM34.6688 29.3375H32V26.6688H34.6688V29.3375ZM34.6688 24H32V21.3312H34.6688V24ZM34.6688 18.6687H32V16H34.6688V18.6687ZM34.6688 13.3313H32V10.6625H34.6688V13.3313ZM34.6688 7.99375H32V5.33125H34.6688V7.99375Z" fill="#979797"/>
</svg>
