<svg width="40" height="40" viewBox="0 0 40 40" fill="none" xmlns="http://www.w3.org/2000/svg">
<path d="M27.6667 6.6665C30.7963 6.6665 33.3334 9.20356 33.3334 12.3332V13.6665C33.3334 24.5281 24.5283 33.3332 13.6667 33.3332H12.3334C9.2038 33.3332 6.66675 30.7961 6.66675 27.6665V26.3332C6.66675 15.4716 15.4718 6.6665 26.3334 6.6665H27.6667ZM31.3334 12.3332C31.3334 10.3081 29.6918 8.6665 27.6667 8.6665H26.3334C25.7957 8.6665 25.2637 8.69052 24.7382 8.73754L31.2623 15.2616C31.3094 14.7362 31.3334 14.2041 31.3334 13.6665V12.3332ZM30.8711 17.6988L22.301 9.12878C15.7386 10.6609 10.5823 15.8509 9.09893 22.432L17.5681 30.9009C24.1491 29.4176 29.3391 24.2613 30.8711 17.6988ZM8.72512 24.8865C8.68645 25.3637 8.66675 25.8461 8.66675 26.3332V27.6665C8.66675 29.6916 10.3084 31.3332 12.3334 31.3332H13.6667C14.1538 31.3332 14.6363 31.3134 15.1135 31.2748L8.72512 24.8865Z" fill="#979797"/>
<path d="M22.8662 15.3661C23.3543 14.878 24.1457 14.878 24.6338 15.3661C25.122 15.8543 25.122 16.6457 24.6338 17.1338L17.1338 24.6338C16.6457 25.122 15.8543 25.122 15.3661 24.6338C14.878 24.1457 14.878 23.3543 15.3661 22.8662L22.8662 15.3661Z" fill="#979797"/>
</svg>
