<svg width="40" height="40" viewBox="0 0 40 40" fill="none" xmlns="http://www.w3.org/2000/svg">
<path fill-rule="evenodd" clip-rule="evenodd" d="M6.66675 19.9998C6.66675 12.6478 12.6481 6.6665 20.0001 6.6665C27.3521 6.6665 33.3334 12.6478 33.3334 19.9998C33.3334 27.3518 27.3521 33.3332 20.0001 33.3332C12.6481 33.3332 6.66675 27.3518 6.66675 19.9998ZM9.33341 19.9998C9.33341 25.8812 14.1187 30.6665 20.0001 30.6665C25.8814 30.6665 30.6667 25.8812 30.6667 19.9998C30.6667 14.1185 25.8814 9.33317 20.0001 9.33317C14.1187 9.33317 9.33341 14.1185 9.33341 19.9998ZM22.0759 24.9148C22.7089 24.6448 23.2845 24.2566 23.7719 23.7708C24.0139 23.5291 24.2323 23.2648 24.4239 22.9814L26.6346 24.4734C26.3492 24.8974 26.0186 25.2974 25.6559 25.6588C25.2906 26.0228 24.8919 26.3508 24.4746 26.6334C23.6082 27.2189 22.635 27.6281 21.6106 27.8374C20.5482 28.0541 19.453 28.0541 18.3906 27.8374C17.366 27.6284 16.3928 27.2192 15.5266 26.6334C14.6754 26.0574 13.9418 25.3243 13.3652 24.4734L15.5759 22.9814C16.2673 24.0072 17.2936 24.7608 18.4793 25.1135C19.6649 25.4661 20.9363 25.3959 22.0759 24.9148ZM15.3333 20C16.4378 20 17.3333 19.1046 17.3333 18C17.3333 16.8954 16.4378 16 15.3333 16C14.2287 16 13.3333 16.8954 13.3333 18C13.3333 19.1046 14.2287 20 15.3333 20ZM26.6481 17.9907C26.6481 19.0901 25.7568 19.9813 24.6574 19.9813C23.558 19.9813 22.6667 19.0901 22.6667 17.9907C22.6667 16.8913 23.558 16 24.6574 16C25.7568 16 26.6481 16.8913 26.6481 17.9907Z" fill="#979797"/>
</svg>
