<svg width="40" height="40" viewBox="0 0 40 40" fill="none" xmlns="http://www.w3.org/2000/svg">
<path d="M6.66675 27.8866C9.62675 26.5533 12.5867 25.2199 15.5601 25.2199C18.5201 25.2199 21.4801 27.8866 24.4401 27.8866C27.4134 27.8866 30.3734 25.2199 33.3334 25.2199V29.2199C30.3734 29.2199 27.4134 31.8866 24.4401 31.8866C21.4801 31.8866 18.5201 29.2199 15.5601 29.2199C12.5867 29.2199 9.62675 30.5533 6.66675 31.8866V27.8866ZM15.5601 21.2199C14.5201 21.2199 13.4934 21.3799 12.4667 21.6466L19.0267 17.0599L17.6401 15.4066C17.4534 15.1799 17.3334 14.8733 17.3334 14.5533C17.3334 14.0999 17.5601 13.6866 17.9201 13.4466L25.5467 8.11328L27.0801 10.2866L20.6267 14.8066L27.6001 23.1133C26.5467 23.5533 25.4934 23.8866 24.4401 23.8866C21.4801 23.8866 18.5201 21.2199 15.5601 21.2199ZM28.0001 13.2199C28.7073 13.2199 29.3856 13.5009 29.8857 14.001C30.3858 14.5011 30.6667 15.1794 30.6667 15.8866C30.6667 16.5939 30.3858 17.2721 29.8857 17.7722C29.3856 18.2723 28.7073 18.5533 28.0001 18.5533C27.2928 18.5533 26.6146 18.2723 26.1145 17.7722C25.6144 17.2721 25.3334 16.5939 25.3334 15.8866C25.3334 15.1794 25.6144 14.5011 26.1145 14.001C26.6146 13.5009 27.2928 13.2199 28.0001 13.2199Z" fill="#979797"/>
</svg>
