<svg width="40" height="40" viewBox="0 0 40 40" fill="none" xmlns="http://www.w3.org/2000/svg">
<path d="M22.1599 18.5335H28.6666V16.1335H23.8399L21.1733 11.6935C20.7733 11.0268 20.0533 10.5735 19.2266 10.5735C18.9866 10.5735 18.7733 10.6135 18.5599 10.6801L11.3333 12.9335V19.8668H13.7333V14.9735L16.5466 14.0935L11.3333 34.5335H13.7333L17.5599 23.7201L20.6666 27.8668V34.5335H23.0666V25.9868L19.7466 19.9335L20.7199 16.1068M21.9999 10.2668C23.3333 10.2668 24.3999 9.20013 24.3999 7.8668C24.3999 6.53346 23.3333 5.4668 21.9999 5.4668C20.6666 5.4668 19.5999 6.53346 19.5999 7.8668C19.5999 9.20013 20.6666 10.2668 21.9999 10.2668Z" fill="#979797"/>
</svg>
