<svg width="40" height="40" viewBox="0 0 40 40" fill="none" xmlns="http://www.w3.org/2000/svg">
<path d="M30.6667 8H9.33341C7.86275 8 6.66675 9.196 6.66675 10.6667V29.3333C6.66675 30.804 7.86275 32 9.33341 32H30.6667C32.1374 32 33.3334 30.804 33.3334 29.3333V10.6667C33.3334 9.196 32.1374 8 30.6667 8ZM30.6681 16C30.6667 16 30.6667 16 30.6681 16H30.0481L26.4921 10.6667H30.6667L30.6681 16ZM16.7147 16L13.1587 10.6667H16.6201L20.1761 16H16.7147ZM23.3814 16L19.8254 10.6667H23.2867L26.8427 16H23.3814ZM9.33341 10.6667H9.95341L13.5094 16H9.33341V10.6667ZM9.33341 29.3333V18.6667H30.6667L30.6694 29.3333H9.33341Z" fill="#979797"/>
<path d="M16.6667 30L25.8334 25L16.6667 20V30Z" fill="#979797"/>
</svg>
